<svg width="55" height="40" viewBox="0 0 55 40" fill="none" xmlns="http://www.w3.org/2000/svg">
<path fill-rule="evenodd" clip-rule="evenodd" d="M13.0217 24.3353L18.6003 27.557C20.9176 28.0083 23.3586 26.367 25.0608 24.9303C28.978 20.9084 33.6949 17.5844 39.2528 16.5376L20.9792 5.97003C22.7021 5.2313 24.6095 4.84153 26.5986 4.84153C33.5925 4.84153 39.4373 9.80739 40.7911 16.3938C42.391 16.1685 43.9288 16.1271 45.5494 16.3323C44.1133 7.16004 36.1766 0.121713 26.5986 0.121713C22.7636 0.121713 19.1953 1.25021 16.1801 3.19965L11.2373 0.347649C9.98636 -0.37097 8.38647 0.0602014 7.66904 1.31172L0.347407 13.9931C-0.37062 15.2446 0.0599596 16.8457 1.31089 17.5637L3.66961 18.9383L3.64891 18.8975L12.9809 24.356V24.3353H13.0217ZM14.2111 11.8183C14.9292 13.3573 20.0772 12.4749 20.0772 16.107C20.0772 18.0357 18.6825 19.1027 16.8366 19.2872V21.2367H15.0729V19.205C13.8628 18.9797 12.7964 18.4663 11.8323 17.6045L12.9602 16.2708C13.473 16.7221 14.0065 17.0509 14.5394 17.297C15.7903 17.8512 18.2313 17.9127 18.2313 16.2915C18.2313 13.8701 12.2629 15.5735 12.2629 11.4487C12.2629 9.76599 13.473 8.65819 15.093 8.39145V6.40061H16.8573V8.39145C17.9438 8.53458 18.8872 8.98645 19.7489 9.66367L18.744 11.0796C18.2514 10.7307 17.78 10.4432 17.2879 10.2587C15.9547 9.72518 14.1088 9.90971 14.1088 11.2641C14.1088 11.4694 14.1496 11.6539 14.2111 11.8183Z" fill="#38B6FF"/>
<path fill-rule="evenodd" clip-rule="evenodd" d="M41.0988 19.0204C36.2175 19.5538 31.5006 22.2012 26.9269 26.9411C23.0304 30.2243 19.5645 31.1476 16.5084 29.7316C15.8318 29.4241 15.196 28.9929 14.5602 28.4393L8.20201 24.7042C8.57167 25.9972 9.08387 27.2487 9.71969 28.3979C13.0833 34.041 19.8513 37.1189 26.517 35.5184C32.9154 33.7535 38.1042 30.717 42.1244 26.4283C38.617 32.8716 31.5621 36.6061 20.9591 37.6731C21.0206 37.6731 26.8246 41.5513 34.4946 39.2943C39.0476 37.9605 42.8418 34.8211 44.9953 30.594C47.1695 26.9411 50.4917 24.1092 54.4296 22.5295C50.2048 19.9028 45.734 18.4869 41.0988 18.9996V19.0204Z" fill="#89C400"/>
</svg>
